<?xml version="1.0" encoding="UTF-8"?>
<svg version="1.1" xmlns="http://www.w3.org/2000/svg" width="225" height="225">
<path d="M0 0 C1.32380173 -0.00855011 1.32380173 -0.00855011 2.67434692 -0.01727295 C4.55241695 -0.02674614 6.43050377 -0.03326608 8.30859375 -0.03710938 C11.14874661 -0.04671747 13.98814526 -0.07767659 16.828125 -0.109375 C34.24379409 -0.21188403 48.04625264 2.51859161 61.06640625 14.88671875 C72.4480625 26.58398418 76.6356338 40.0899908 76.5949707 56.13208008 C76.60008163 57.18701157 76.60519257 58.24194305 76.61045837 59.32884216 C76.62428365 62.79350564 76.62340275 66.25796858 76.62109375 69.72265625 C76.62498484 72.14727349 76.62932036 74.57189005 76.63407898 76.99650574 C76.64152624 82.07101656 76.64126093 87.1454578 76.63598633 92.2199707 C76.6301969 98.69915862 76.6471176 105.1780602 76.670331 111.65720081 C76.68511648 116.66315862 76.68593343 121.66904825 76.68282127 126.67502403 C76.68333217 129.06265517 76.68852599 131.45029036 76.69863319 133.83790016 C76.71107229 137.18744736 76.7041608 140.53644685 76.69262695 143.88598633 C76.70027069 144.85728485 76.70791443 145.82858337 76.71578979 146.82931519 C76.59983123 162.18803899 71.27730743 174.80695977 60.734375 185.9140625 C49.81922235 196.26402925 37.70007914 200.37046058 22.8984375 200.3359375 C21.99784607 200.33689423 21.09725464 200.33785095 20.16937256 200.33883667 C18.27323334 200.33951529 16.37709175 200.33768324 14.48095703 200.33349609 C11.56667944 200.3281183 8.65255422 200.33346464 5.73828125 200.33984375 C3.89583299 200.3391834 2.05338483 200.33790314 0.2109375 200.3359375 C-0.66504089 200.33796173 -1.54101929 200.33998596 -2.44354248 200.34207153 C-8.56472065 200.31809185 -8.56472065 200.31809185 -9.6796875 199.203125 C-9.77966632 196.65084891 -9.81409749 194.12556907 -9.80667114 191.57275391 C-9.80823113 190.76406168 -9.80979112 189.95536945 -9.81139839 189.1221714 C-9.81541175 186.39132532 -9.81221745 183.66053407 -9.80908203 180.9296875 C-9.81043592 178.98044807 -9.81221579 177.0312089 -9.81439209 175.08197021 C-9.81896786 169.77220793 -9.81717628 164.46246498 -9.814013 159.15270233 C-9.81149014 153.60912522 -9.81382673 148.06554983 -9.81539917 142.52197266 C-9.81722108 133.21060894 -9.81481399 123.89925314 -9.81005859 114.58789062 C-9.80461593 103.80596851 -9.80637857 93.02406529 -9.811885 82.24214363 C-9.81641551 73.00311686 -9.81706698 63.7640958 -9.81444633 54.52506828 C-9.81288322 48.99906987 -9.81269073 43.47308037 -9.81598282 37.94708252 C-9.81886064 32.75318766 -9.81688748 27.5593173 -9.81108856 22.36542511 C-9.80976048 20.45335175 -9.81015588 18.54127635 -9.81235123 16.6292038 C-9.81506087 14.03060624 -9.8116839 11.43208849 -9.80667114 8.83349609 C-9.80890186 8.06668329 -9.81113259 7.29987049 -9.81343091 6.50982094 C-9.78398386 -1.29402492 -6.94754314 0.03444671 0 0 Z M16.0703125 97.578125 C12.44069822 102.12939526 10.75671374 105.97414575 10.94921875 111.953125 C11.94970571 118.01923538 14.86021123 123.61855774 19.8203125 127.328125 C25.34299216 130.24084263 31.27317867 130.25159021 37.3203125 129.203125 C42.65882938 126.89664131 47.01423165 123.68006701 49.3203125 118.203125 C51.28430333 113.02533098 50.78816717 107.65593687 49.1328125 102.515625 C46.08543535 96.94628056 42.34146967 93.3216803 36.3203125 91.203125 C27.9026071 90.28597202 21.92455256 91.13424925 16.0703125 97.578125 Z " fill="#FF090A" transform="translate(137.6796875,11.796875)"/>
<path d="M0 0 C1.07751526 -0.00315216 2.15503052 -0.00630432 3.26519775 -0.009552 C4.99355865 -0.00651566 4.99355865 -0.00651566 6.75683594 -0.00341797 C7.94597595 -0.00437469 9.13511597 -0.00533142 10.36029053 -0.00631714 C12.86844943 -0.00699672 15.37661011 -0.00515789 17.88476562 -0.00097656 C21.74059957 0.00439368 25.59631802 -0.00093877 29.45214844 -0.00732422 C31.88704453 -0.00666377 34.32194055 -0.0053833 36.75683594 -0.00341797 C37.91717346 -0.0054422 39.07751099 -0.00746643 40.27301025 -0.009552 C41.87037018 -0.00482376 41.87037018 -0.00482376 43.5 0 C44.44200256 0.00079559 45.38400513 0.00159119 46.35455322 0.00241089 C48.49121094 0.12939453 48.49121094 0.12939453 49.49121094 1.12939453 C49.59118975 3.68167062 49.62562093 6.20695046 49.61819458 8.75976562 C49.62053457 9.97280396 49.62053457 9.97280396 49.62292182 11.21034813 C49.62693518 13.94119421 49.62374089 16.67198546 49.62060547 19.40283203 C49.62195936 21.35207146 49.62373922 23.30131063 49.62591553 25.25054932 C49.6304913 30.5603116 49.62869971 35.87005456 49.62553644 41.1798172 C49.62301358 46.72339431 49.62535017 52.26696971 49.62692261 57.81054688 C49.62874452 67.12191059 49.62633743 76.43326639 49.62158203 85.74462891 C49.61613937 96.52655103 49.61790201 107.30845424 49.62340844 118.0903759 C49.62793895 127.32940267 49.62859042 136.56842373 49.62596977 145.80745125 C49.62440665 151.33344966 49.62421416 156.85943917 49.62750626 162.38543701 C49.63038408 167.57933187 49.62841092 172.77320223 49.622612 177.96709442 C49.62128392 179.87916778 49.62167932 181.79124318 49.62387466 183.70331573 C49.62658431 186.30191329 49.62320734 188.90043104 49.61819458 191.49902344 C49.62154066 192.64924264 49.62154066 192.64924264 49.62495434 193.82269859 C49.60536078 199.01524469 49.60536078 199.01524469 48.49121094 200.12939453 C46.86198088 200.2385459 45.22805256 200.27846007 43.59521484 200.29052734 C42.54967438 200.30013489 41.50413391 200.30974243 40.4269104 200.31964111 C39.2853952 200.32389099 38.14388 200.32814087 36.96777344 200.33251953 C35.79669037 200.3382196 34.6256073 200.34391968 33.41903687 200.34979248 C30.92894397 200.35926578 28.43883841 200.36578565 25.94873047 200.36962891 C22.16708806 200.37926489 18.38600524 200.41023765 14.60449219 200.44189453 C12.18392249 200.44843135 9.76334891 200.45367915 7.34277344 200.45751953 C6.22150055 200.46986633 5.10022766 200.48221313 3.94497681 200.49493408 C-11.03277708 200.45320045 -23.37288432 195.78284787 -34.25488281 185.44580078 C-45.63653906 173.74853535 -49.82411037 160.24252874 -49.78344727 144.20043945 C-49.7885582 143.14550797 -49.79366913 142.09057648 -49.79893494 141.00367737 C-49.81276021 137.53901389 -49.81187931 134.07455095 -49.80957031 130.60986328 C-49.8134614 128.18524604 -49.81779692 125.76062948 -49.82255554 123.33601379 C-49.8300028 118.26150297 -49.8297375 113.18706173 -49.82446289 108.11254883 C-49.81867346 101.63336091 -49.83559416 95.15445934 -49.85880756 88.67531872 C-49.87359305 83.66936091 -49.87440999 78.66347128 -49.87129784 73.6574955 C-49.87180873 71.26986436 -49.87700255 68.88222917 -49.88710976 66.49461937 C-49.89954886 63.14507218 -49.89263736 59.79607269 -49.88110352 56.4465332 C-49.88874725 55.47523468 -49.89639099 54.50393616 -49.90426636 53.50320435 C-49.7883078 38.14448055 -44.46578399 25.52555976 -33.92285156 14.41845703 C-24.50611554 5.48931899 -13.10805578 0.01103348 0 0 Z M-22.05957031 27.58642578 C-30.19175249 36.20290665 -31.65309325 46.67898199 -31.68579102 58.03759766 C-31.69236221 59.03181732 -31.69893341 60.02603699 -31.70570374 61.05038452 C-31.72539419 64.3371387 -31.73709217 67.62384719 -31.74707031 70.91064453 C-31.75114584 72.0372197 -31.75522137 73.16379486 -31.75942039 74.32450867 C-31.78026666 80.2916953 -31.7945726 86.25885907 -31.80395508 92.22607422 C-31.8149944 98.36454695 -31.84937024 104.5026547 -31.88912678 110.64099884 C-31.91538026 115.38192378 -31.92365485 120.12276305 -31.92723656 124.86375427 C-31.93208279 127.12497919 -31.94364012 129.3862008 -31.96227455 131.64735413 C-32.45206956 153.80256849 -32.45206956 153.80256849 -22.01660156 172.67236328 C-7.06702045 186.62300925 11.45243474 182.12939453 31.49121094 182.12939453 C31.49121094 128.00939453 31.49121094 73.88939453 31.49121094 18.12939453 C2.5823174 15.9319053 2.5823174 15.9319053 -22.05957031 27.58642578 Z " fill="#FF1718" transform="translate(59.5087890625,11.87060546875)"/>
<path d="M0 0 C4.14209674 2.93789955 7.28721191 6.52179198 8.89453125 11.34375 C9.40202042 17.56049229 9.66651455 23.11164413 5.89453125 28.34375 C1.10194501 33.2546717 -2.98229843 36.03655292 -9.91796875 36.71875 C-15.48359371 36.54056615 -19.89307713 34.45536022 -23.90625 30.625 C-28.66812698 25.26078536 -29.41550272 21.17905173 -29.3125 14.0625 C-28.89935362 8.63703052 -26.62718107 5.63390041 -22.73046875 2.09375 C-15.55549287 -3.62825582 -8.06485871 -4.45396536 0 0 Z " fill="#FF1011" transform="translate(71.10546875,55.65625)"/>
<path d="M0 0 C0.66 0.33 1.32 0.66 2 1 C0.73657512 2.48549956 -0.5360103 3.96321189 -1.8125 5.4375 C-2.52019531 6.26121094 -3.22789063 7.08492187 -3.95703125 7.93359375 C-6 10 -6 10 -9 11 C-7.59155282 7.78475695 -5.89655214 5.67816132 -3.375 3.25 C-2.74335938 2.63640625 -2.11171875 2.0228125 -1.4609375 1.390625 C-0.73777344 0.70226562 -0.73777344 0.70226562 0 0 Z " fill="#FF6161" transform="translate(30,22)"/>
<path d="M0 0 C0.66 0.33 1.32 0.66 2 1 C-2.625 6.875 -2.625 6.875 -6 8 C-4.55746343 4.63408134 -2.66735273 2.48952921 0 0 Z " fill="#FF5B5B" transform="translate(50,56)"/>
</svg>
